<?xml version="1.0" encoding="utf-8"?>
<svg version="1.1" id="Layer_1" xmlns="http://www.w3.org/2000/svg" xmlns:xlink="http://www.w3.org/1999/xlink" x="0px" y="0px"
	 viewBox="0 0 70 70" style="enable-background:new 0 0 70 70;" xml:space="preserve">
<style type="text/css">
	.st0{fill:#2A3647;}
</style>
<path class="st0" d="M35,0.5C15.9,0.5,0.5,15.9,0.5,35S15.9,69.5,35,69.5S69.5,54.1,69.5,35S54.1,0.5,35,0.5z M52.6,26.2L33.9,48.3
	c-0.6,0.7-1.5,1.2-2.5,1.2c-0.1,0-0.1,0-0.2,0c-0.9,0-1.8-0.4-2.5-1L17.6,37.5c-1.4-1.4-1.4-3.6,0-4.9c1.4-1.4,3.6-1.4,4.9,0
	l8.5,8.4l16.3-19.2c1.2-1.5,3.5-1.7,4.9-0.4C53.7,22.5,53.9,24.7,52.6,26.2z"/>
</svg>
