<?xml version="1.0" encoding="utf-8"?>
<svg version="1.1" id="Layer_1" xmlns="http://www.w3.org/2000/svg" xmlns:xlink="http://www.w3.org/1999/xlink" x="0px" y="0px"
	 viewBox="0 0 69 70" style="enable-background:new 0 0 69 70;" xml:space="preserve">
<style type="text/css">
	.st0{fill:#2A3647;}
</style>
<g>
	<polygon class="st0" points="25.2,44.3 27,44.3 38.5,32.8 36.7,31 25.2,42.5 	"/>
	<path class="st0" d="M34.5,0.5C15.4,0.5,0,15.9,0,35s15.4,34.5,34.5,34.5S69,54.1,69,35S53.6,0.5,34.5,0.5z M28.2,47h-5.7v-5.7
		l14.1-14.1l5.7,5.7L28.2,47z M46.1,29l-1.9,1.9l-5.7-5.6l1.9-1.9c0.5-0.5,1.1-0.8,1.9-0.8c0.7,0,1.4,0.3,1.9,0.8l1.9,1.9
		c0.5,0.5,0.8,1.1,0.8,1.8C46.9,27.9,46.6,28.5,46.1,29z"/>
</g>
</svg>
